PathFileType	4	(X/Y/Z)	./resultDataOpenSim/trcMotMarkerGrf/sub09/qtm-01-01.trc
DataRate	CameraRate	NumFrames	NumMarkers	Units	OrigDataRate	OrigDataStartFrame	OrigNumFrames
250.000000	250.000000	10	24	m	250.000000	62	488
Frame#	Time	L.Toe.Tip			R.Toe.Tip			L.Ankle.Lat			R.Ankle.Lat			L.Ankle.Med			R.Ankle.Med			L.Heel			R.Heel			L.Knee.Lat			R.Knee.Lat			L.Knee.Med			R.Knee.Med			L.Thigh.Upper			R.Thigh.Upper			L.ASIS			R.ASIS			V.Sacral			L.Acromium			R.Acromium			C7			L.Elbow			R.Elbow			L.Wrist.Lat			R.Wrist.Lat
		X1	Y1	Z1	X2	Y2	Z2	X3	Y3	Z3	X4	Y4	Z4	X5	Y5	Z5	X6	Y6	Z6	X7	Y7	Z7	X8	Y8	Z8	X9	Y9	Z9	X10	Y10	Z10	X11	Y11	Z11	X12	Y12	Z12	X13	Y13	Z13	X14	Y14	Z14	X15	Y15	Z15	X16	Y16	Z16	X17	Y17	Z17	X18	Y18	Z18	X19	Y19	Z19	X20	Y20	Z20	X21	Y21	Z21	X22	Y22	Z22	X23	Y23	Z23	X24	Y24	Z24

62	0.244	-1.2700449	0.10240465	-0.0017497112	-0.65033933	0.040022105	0.12736534	-1.2962482	0.25915831	-0.031166741	-0.79645791	0.054580234	0.16606002	-1.2679814	0.24012468	0.061323411	-0.79204786	0.09172234	0.073898082	-1.3577266	0.30101971	0.02140741	-0.86649652	0.031222453	0.11981954	-0.92988991	0.44080392	-0.063889503	-0.73675442	0.50718478	0.21792966	-0.91252966	0.42452235	0.06156797	-0.76371205	0.49398272	0.094893743	-0.94287979	0.8470037	-0.08079142	-0.90956206	0.87653801	0.28876813	-0.85387007	0.93679828	-0.03180717	-0.83097451	0.96394522	0.20619598	-1.0145096	1.0025181	0.097490122	-0.85437102	1.3968998	-0.079084651	-0.88630336	1.4150058	0.24853414	-0.93730244	1.4572113	0.081321202	-0.95404558	1.0338833	-0.12792054	-1.0085418	1.0726301	0.32854099	-0.75809779	0.85284256	-0.12340147	-0.87519081	0.83568523	0.35223191
63	0.248	-1.2544617	0.10341194	-0.0021835691	-0.65039971	0.040023132	0.12737922	-1.2828906	0.25960626	-0.030347857	-0.79654903	0.054616603	0.16608412	-1.2535464	0.24046219	0.061749581	-0.79202758	0.091746269	0.073915509	-1.3450433	0.30068213	0.022536065	-0.86653776	0.0312571	0.11974439	-0.9177329	0.44255764	-0.06334526	-0.73453858	0.50701631	0.21802995	-0.90044614	0.42609313	0.062271579	-0.76160862	0.49386877	0.095051354	-0.93649118	0.84856949	-0.080647193	-0.90370951	0.8780564	0.28892444	-0.84836973	0.93853989	-0.031598489	-0.82576065	0.96532144	0.20626474	-1.0086146	1.0041338	0.097880202	-0.84921722	1.398526	-0.079182029	-0.88017748	1.4166272	0.24855111	-0.93159918	1.4587571	0.08147905	-0.94906032	1.0356859	-0.12738211	-1.0020774	1.0741639	0.32921814	-0.75474385	0.85310914	-0.12359407	-0.86766087	0.83763852	0.35212874
64	0.252	-1.2385455	0.10423787	-0.0024893912	-0.65045458	0.040027053	0.12740863	-1.2692729	0.25979737	-0.029635265	-0.79663106	0.054642262	0.16607907	-1.2387886	0.24061617	0.06212193	-0.79201126	0.091779604	0.073935192	-1.3323206	0.29999268	0.023611487	-0.86656247	0.031306529	0.11967639	-0.90553934	0.44442754	-0.062798545	-0.73246924	0.50687766	0.21815667	-0.88844063	0.42788064	0.062934909	-0.75958023	0.493798	0.095210156	-0.93009515	0.85022015	-0.080509792	-0.89734419	0.87957831	0.28915905	-0.84286064	0.9403403	-0.031365304	-0.82072901	0.96668403	0.20634694	-1.0026136	1.0057632	0.098548316	-0.84413583	1.4002108	-0.079291219	-0.87408744	1.4182945	0.24856819	-0.92591992	1.4603398	0.08157119	-0.94414892	1.0375425	-0.12682606	-0.99564893	1.0757436	0.32989948	-0.7514234	0.85349706	-0.12378623	-0.8601133	0.83966581	0.35200103
65	0.256	-1.2223254	0.10487965	-0.0026710064	-0.65050413	0.040033015	0.12745056	-1.2554789	0.25972543	-0.02898715	-0.79670389	0.054665036	0.16605327	-1.2242524	0.24056679	0.062620098	-0.79199326	0.091822361	0.073955953	-1.3194291	0.29892985	0.024484291	-0.86657474	0.031370256	0.11961474	-0.8932214	0.44641814	-0.062237965	-0.73055298	0.50673547	0.21833325	-0.87627697	0.42988961	0.063489787	-0.75755684	0.49375947	0.0953166	-0.92375748	0.85193934	-0.080431952	-0.89097584	0.88105962	0.28940261	-0.83730491	0.94218249	-0.031114609	-0.8155384	0.96804227	0.20647223	-0.99653782	1.0074011	0.099407386	-0.8390996	1.4019352	-0.079407287	-0.86804343	1.4199969	0.24858876	-0.92027779	1.4619678	0.081515639	-0.93930594	1.0394443	-0.12625426	-0.98927039	1.0773617	0.33059688	-0.74815159	0.85399711	-0.12399157	-0.85253843	0.84176136	0.35184823
66	0.26	-1.205846	0.10532737	-0.0027307294	-0.65055099	0.040037896	0.12750364	-1.2416335	0.25938574	-0.028327539	-0.79676164	0.054690186	0.16601849	-1.210054	0.24029961	0.063261679	-0.79197039	0.091872018	0.073980352	-1.3063217	0.29748514	0.025112962	-0.86657953	0.03144568	0.11955424	-0.88081226	0.44854021	-0.061660564	-0.7288048	0.50658972	0.21856673	-0.86398161	0.43213766	0.06395249	-0.75550297	0.49374679	0.095319947	-0.91754176	0.85371107	-0.080457447	-0.88480843	0.88249002	0.28963107	-0.83162499	0.94407647	-0.030843074	-0.81010197	0.96939222	0.20664323	-0.99052688	1.0090473	0.10013189	-0.8340254	1.403677	-0.079515319	-0.86203755	1.4217157	0.24860953	-0.91466394	1.4636271	0.081322529	-0.93452453	1.041383	-0.12567468	-0.9829506	1.079009	0.33131917	-0.74493583	0.85458835	-0.12421833	-0.84498152	0.84390096	0.35169343
67	0.264	-1.1891498	0.10556734	-0.002673355	-0.65059935	0.040038507	0.12756824	-1.2277656	0.25877731	-0.027619242	-0.79679978	0.054717231	0.1659846	-1.1959411	0.23982681	0.063940514	-0.79194675	0.091925657	0.074011475	-1.2931209	0.29568109	0.025652922	-0.86658205	0.031529269	0.11949341	-0.8684774	0.45078147	-0.061076138	-0.72719721	0.50645017	0.21881581	-0.85178811	0.43458313	0.064446876	-0.75343288	0.49375664	0.095232243	-0.9114075	0.85553073	-0.080554261	-0.8788944	0.88387138	0.28983503	-0.82571534	0.94605141	-0.030544149	-0.80452441	0.97072851	0.20684147	-0.98466085	1.010703	0.10054893	-0.82882911	1.4054263	-0.079600564	-0.85604572	1.4234362	0.24862517	-0.90905511	1.4652849	0.081113173	-0.92979677	1.0433465	-0.12508535	-0.9766835	1.0806728	0.33206146	-0.74176322	0.85525105	-0.12447262	-0.8374919	0.84605918	0.35156079
68	0.268	-1.1722632	0.10560483	-0.0025115719	-0.65065261	0.040034529	0.12764445	-1.2138279	0.2579008	-0.026873594	-0.79682028	0.054742825	0.1659583	-1.1817039	0.23916027	0.064593262	-0.79192848	0.091983788	0.074051509	-1.2799389	0.29354865	0.026254975	-0.86658678	0.031615124	0.11943851	-0.85634512	0.45310692	-0.060481583	-0.72563242	0.50630098	0.21902661	-0.83994939	0.43713621	0.065128598	-0.75134967	0.49378671	0.09510894	-0.90515098	0.85741123	-0.080605999	-0.87324926	0.88519951	0.29000473	-0.81955706	0.94811753	-0.030223436	-0.79892815	0.9720462	0.20705529	-0.97890505	1.0123673	0.10075144	-0.82353293	1.407184	-0.079665355	-0.85005656	1.425161	0.24863484	-0.90343315	1.4669138	0.081015038	-0.92511724	1.0453229	-0.12447563	-0.97043672	1.0823362	0.33280307	-0.73861064	0.85597397	-0.12476415	-0.83006846	0.84822728	0.3514575
69	0.272	-1.1551944	0.10546516	-0.0022621982	-0.65071249	0.04002891	0.12773023	-1.1997679	0.25676434	-0.026127855	-0.79683334	0.054765534	0.16594505	-1.1673335	0.23829184	0.065238184	-0.79191477	0.092050425	0.074101595	-1.2667243	0.29110371	0.026893876	-0.86659709	0.031696571	0.11940018	-0.84437739	0.45550067	-0.059866241	-0.72402291	0.50611497	0.21919004	-0.82854175	0.43977045	0.066024022	-0.74915136	0.49383297	0.094956893	-0.89857915	0.85937434	-0.080512224	-0.86786863	0.88646925	0.29013409	-0.81332709	0.95023609	-0.029902713	-0.79338101	0.97334097	0.20729528	-0.9731951	1.0140261	0.10088581	-0.81826571	1.4089451	-0.079729302	-0.84408467	1.4269	0.24864133	-0.89779977	1.4685103	0.081047533	-0.92049271	1.0473057	-0.123851	-0.96414825	1.0839836	0.33351305	-0.73546087	0.85675275	-0.12510226	-0.82266539	0.85040623	0.35137476
70	0.276	-1.1379427	0.10517483	-0.0019401681	-0.65077849	0.040025668	0.12782198	-1.1855558	0.25538185	-0.025413576	-0.79685562	0.054788175	0.16595024	-1.1529192	0.23720832	0.065920886	-0.79189752	0.092130169	0.074161214	-1.2533656	0.28835993	0.027495674	-0.86661362	0.031771022	0.11938409	-0.83248847	0.45797085	-0.059236659	-0.72240941	0.50589407	0.21935867	-0.81737476	0.44251302	0.066992371	-0.74674592	0.4938886	0.094790036	-0.89179244	0.86142494	-0.080309591	-0.86271029	0.88768147	0.29022667	-0.80728997	0.95234315	-0.029598717	-0.78789235	0.97461151	0.20757559	-0.96749065	1.015665	0.10102378	-0.81311787	1.4106941	-0.079806462	-0.83814838	1.4286507	0.24864736	-0.89216783	1.470083	0.081147004	-0.91594382	1.0492904	-0.12324886	-0.95774739	1.0856064	0.3341613	-0.73230978	0.85758682	-0.12549128	-0.81522888	0.85259743	0.35129721
71	0.28	-1.1205205	0.1047504	-0.0015594397	-0.65084687	0.040027468	0.12791557	-1.1712002	0.25375947	-0.024720667	-0.79689976	0.054815849	0.16597646	-1.1384628	0.23591792	0.066662716	-0.7918711	0.092224919	0.074228746	-1.2398257	0.28534527	0.028086064	-0.86663063	0.031843979	0.11937991	-0.82066997	0.46051658	-0.05860877	-0.72095457	0.5056751	0.21961341	-0.80617615	0.44534854	0.067888654	-0.74425973	0.49393947	0.094708067	-0.88510831	0.86353494	-0.080141557	-0.85773075	0.88883889	0.29029594	-0.80155184	0.95440124	-0.029303737	-0.78243888	0.97585406	0.20789215	-0.96177028	1.0172899	0.10118873	-0.80805484	1.4124191	-0.079889695	-0.83224471	1.4303966	0.24865255	-0.88654536	1.471636	0.081252504	-0.91149852	1.0512738	-0.12273505	-0.95119747	1.0872045	0.33473475	-0.72916343	0.85847603	-0.1259314	-0.80772454	0.85480304	0.35121171
